<?xml version="1.0" encoding="utf-8"?>
<!-- Svg Vector Icons : http://www.onlinewebfonts.com/icon -->
<!DOCTYPE svg PUBLIC "-//W3C//DTD SVG 1.1//EN" "http://www.w3.org/Graphics/SVG/1.1/DTD/svg11.dtd">
<svg version="1.1" xmlns="http://www.w3.org/2000/svg" xmlns:xlink="http://www.w3.org/1999/xlink" x="0px" y="0px" viewBox="0 0 1000 1000" enable-background="new 0 0 1000 1000" xml:space="preserve">
<metadata> Svg Vector Icons : http://www.onlinewebfonts.com/icon </metadata>
<g><path d="M403.1,118.8v56c-79,28.7-141.3,74.1-186.1,136.4c-44.8,61.6-67.2,125.9-67.2,193.1c0,14.7,2.1,25.2,7,32.2c2.8,4.9,6.3,7,10.5,7c3.5,0,9.8-2.8,16.8-7.7c24.5-17.5,55.3-25.9,92.3-25.9c43.4,0,81.8,17.5,114.7,53.2c33.6,35,50.4,76.9,50.4,125.9c0,51.1-18.9,95.8-57.4,134.3c-38.5,38.5-84.6,58.1-139.2,58.1c-63.7,0-118.9-25.9-165.1-78.3C33.1,749,10,678.4,10,590.2c0-102.8,31.5-194.5,94.4-275.6C167.4,233.5,266.7,168.4,403.1,118.8z M950.8,118.8v56c-79,28.7-140.6,74.1-185.4,136.4c-44.8,61.6-67.2,125.9-67.2,193.1c0,14.7,2.1,25.2,7,32.2c2.8,4.9,6.3,7,10.5,7c3.5,0,9.8-2.8,16.8-7.7c24.5-17.5,55.3-25.9,92.3-25.9c43.4,0,81.8,17.5,114.7,53.2c33.6,35,50.4,76.9,50.4,125.9c0,51.1-18.9,95.8-57.4,134.3s-84.6,58.1-139.2,58.1c-63.7,0-118.9-25.9-165.1-78.3c-46.2-52.5-69.2-122.4-69.2-210.5c0-102.8,31.5-194.5,94.4-275.6C715.1,233.5,814.4,168.4,950.8,118.8z"/></g>
</svg>